#!OML:ASF H:\Terrain\Patient Classification 1\Animal1\Tuesday\Animal1.ASF
:FULLY-SPECIFIED
:DEGREES
1630
root 11.0607 16.5721 -8.56432 8.96323 3.94077 -2.20055
lowerback -7.32802 -1.31757 0.532761
upperback -11.731 -1.70932 0.837445
thorax -8.25533 -0.84696 0.586427
lowerneck 0.672748 -13.4055 -11.7177
upperneck 0.128738 -18.2747 13.1803
head 2.22632 -9.10857 5.10973
rclavicle 2.06736e-014 4.77083e-015
rhumerus -36.2818 23.4385 -59.5365
rradius 124.416
rwrist 12.6041
rhand 49.1093 -8.38273
rfingers 7.12502
rthumb 69.358 -366.063
lclavicle 2.06736e-014 4.77083e-015
lhumerus -22.3543 -22.8443 92.6164
lradius 121.912
lwrist -61.3518
lhand -113.167 -264.733
lfingers 7.12502
lthumb 74.6089 -217.812
rfemur -14.9196 29.0355 17.7913
rtibia 19.1677
rfoot -33.1481 -40.4104
rtoes 39.5243
lfemur -4.1575 -37.6016 -10.1763
ltibia 11.0751
lfoot -21.4374 33.2452
ltoes 9.00403
1631
root 11.0542 16.5746 -8.56384 8.97482 4.39598 -2.43242
lowerback -7.25281 -1.6438 0.662534
upperback -11.6589 -2.13597 1.04756
thorax -8.21273 -1.05983 0.736441
lowerneck 1.33084 -13.9132 -12.4682
upperneck -0.339038 -19.0163 13.6449
head 2.19048 -9.50262 5.34
rclavicle -3.68124e-014 -9.19379e-016
rhumerus -36.1636 22.1688 -57.564
rradius 123.556
rwrist 13.7332
rhand 51.3242 -8.6867
rfingers 7.12502
rthumb 70.7934 -361.708
lclavicle -3.68124e-014 -9.19379e-016
lhumerus -22.4502 -21.8788 92.3765
lradius 121.954
lwrist -61.6091
lhand -113.167 -264.733
lfingers 7.12502
lthumb 74.6089 -217.812
rfemur -14.8477 28.9463 18.1401
rtibia 19.134
rfoot -33.5641 -40.4857
rtoes 39.8989
lfemur -4.41496 -37.5471 -9.68041
ltibia 11.0932
lfoot -20.9875 33.0853
ltoes 7.53946
1632
root 11.0469 16.5736 -8.56215 8.96953 4.783 -2.48476
lowerback -7.12508 -1.93931 0.670563
upperback -11.6218 -2.52472 1.156
thorax -8.23757 -1.2487 0.850211
lowerneck 1.66539 -14.4337 -13.2489
upperneck -0.178075 -19.803 13.9114
head 2.38836 -9.90294 5.45883
rclavicle -1.4342e-014 -9.07887e-015
rhumerus -36.2652 20.8212 -55.7967
rradius 123.128
rwrist 14.8328
rhand 52.8891 -9.67738
rfingers 7.12502
rthumb 71.7173 -358.975
lclavicle -1.4342e-014 -9.07887e-015
lhumerus -22.6887 -21.0579 92.1187
lradius 121.981
lwrist -61.8616
lhand -113.167 -264.733
lfingers 7.12502
lthumb 74.6089 -217.812
rfemur -14.7386 29.0809 18.2651
rtibia 19.0481
rfoot -34.4476 -40.4889
rtoes 40.6024
lfemur -4.67349 -37.5717 -9.43119
ltibia 11.2293
lfoot -20.846 32.8422
ltoes 6.28381
1633
root 11.0381 16.5755 -8.56347 9.11275 5.12523 -2.45053
lowerback -7.05706 -2.18598 0.679784
upperback -11.7232 -2.85318 1.16525
thorax -8.38892 -1.41208 0.862024
lowerneck 2.33436 -14.9831 -13.4397
upperneck -0.31595 -20.6047 13.6009
head 2.32972 -10.3267 5.37624
rclavicle 7.00561e-015 1.24862e-014
rhumerus -36.7529 19.4097 -54.3333
rradius 122.678
rwrist 15.9189
rhand 53.3599 -9.79319
rfingers 7.12502
rthumb 71.9785 -357.896
lclavicle 7.00561e-015 1.24862e-014
lhumerus -23.1867 -20.4958 91.9296
lradius 121.963
lwrist -62.0287
lhand -113.167 -264.733
lfingers 7.12502
lthumb 74.6089 -217.812
rfemur -14.8136 29.3228 18.1917
rtibia 18.9417
rfoot -35.5092 -40.4716
rtoes 41.4105
lfemur -5.1615 -37.4729 -9.14942
ltibia 11.4052
lfoot -20.6879 32.4593
ltoes 5.47052
1634
root 11.0318 16.5787 -8.55974 9.23569 5.45296 -2.39578
lowerback -7.03991 -2.47285 0.670403
upperback -11.7937 -3.23584 1.18492
thorax -8.47462 -1.6008 0.892929
lowerneck 3.41044 -15.5783 -13.1275
upperneck -1.30216 -21.4112 12.9987
head 1.86876 -10.7677 5.23219
rclavicle 2.23105e-014 6.03808e-015
rhumerus -37.1485 18.0603 -53.1862
rradius 122.125
rwrist 16.9687
rhand 54.591 -9.07973
rfingers 7.12502
rthumb 72.6213 -353.891
lclavicle 2.23105e-014 6.03808e-015
lhumerus -23.6817 -19.9154 91.7465
lradius 121.896
lwrist -62.2477
lhand -113.167 -264.733
lfingers 7.12502
lthumb 74.6089 -217.812
rfemur -14.8422 29.3671 18.1421
rtibia 18.9011
rfoot -36.2594 -40.3523
rtoes 42.1689
lfemur -5.49036 -37.6535 -8.95505
ltibia 11.4699
lfoot -20.7947 32.2602
ltoes 6.11119
1635
root 11.0266 16.5777 -8.5562 9.29755 5.69546 -2.39
lowerback -7.04385 -2.72172 0.654507
upperback -11.8004 -3.56604 1.24441
thorax -8.47329 -1.76124 0.965879
lowerneck 4.44878 -16.0238 -13.0529
upperneck -2.21604 -22.0471 12.884
head 1.49235 -11.1196 5.27246
rclavicle 2.06488e-014 1.11319e-014
rhumerus -37.4145 16.7115 -52.1421
rradius 121.785
rwrist 17.4849
rhand 55.5961 -8.88508
rfingers 7.12502
rthumb 73.0991 -350.829
lclavicle 2.06488e-014 1.11319e-014
lhumerus -24.0625 -19.3913 91.7275
lradius 121.721
lwrist -62.5429
lhand -113.167 -264.733
lfingers 7.12502
lthumb 74.6089 -217.812
rfemur -14.8689 29.3385 18.1717
rtibia 18.9386
rfoot -36.6663 -40.2944
rtoes 42.7103
lfemur -5.62208 -37.9038 -8.79502
ltibia 11.4081
lfoot -21.2555 32.0105
ltoes 8.13772
1636
root 11.0209 16.5771 -8.55532 9.33761 5.77089 -2.40908
lowerback -7.04307 -2.88399 0.631516
upperback -11.7596 -3.78065 1.30713
thorax -8.42036 -1.86379 1.04367
lowerneck 4.85949 -16.2115 -13.1614
upperneck -2.45374 -22.3408 13.1572
head 1.4389 -11.2826 5.38145
rclavicle 3.78933e-015 -1.36913e-014
rhumerus -37.6909 15.4543 -50.9564
rradius 121.857
rwrist 17.4288
rhand 55.1806 -8.75838
rfingers 7.12502
rthumb 72.907 -351.907
lclavicle 3.78933e-015 -1.36913e-014
lhumerus -24.2345 -19.0175 91.8618
lradius 121.316
lwrist -62.9743
lhand -113.167 -264.733
lfingers 7.12502
lthumb 74.6089 -217.812
rfemur -14.99 29.4581 18.1789
rtibia 19.065
rfoot -36.9761 -40.375
rtoes 42.964
lfemur -5.60871 -37.9696 -8.68953
ltibia 11.1947
lfoot -21.0938 32.0986
ltoes 8.39526
1637
root 11.0165 16.5803 -8.55657 9.40405 5.71969 -2.22259
lowerback -6.97139 -3.03377 0.39948
upperback -11.7519 -3.97927 1.30896
thorax -8.43424 -1.94367 1.17813
lowerneck 4.88904 -16.4047 -13.0129
upperneck -2.43213 -22.5985 13.1281
head 1.45331 -11.4124 5.33501
rclavicle -2.11706e-014 1.33683e-014
rhumerus -38.1489 14.5453 -49.9761
rradius 122.368
rwrist 17.0556
rhand 54.5854 -8.61733
rfingers 7.12502
rthumb 72.6185 -353.444
lclavicle -2.11706e-014 1.33683e-014
lhumerus -24.359 -18.7359 91.99
lradius 120.875
lwrist -63.6376
lhand -113.167 -264.733
lfingers 7.12502
lthumb 74.6089 -217.812
rfemur -15.1779 29.5529 17.9373
rtibia 19.2704
rfoot -37.001 -40.5411
rtoes 42.7461
lfemur -5.49243 -38.0383 -8.84851
ltibia 10.8467
lfoot -20.057 32.4588
ltoes 7.25739
1638
root 11.0125 16.5851 -8.55614 9.48767 5.65813 -2.01333
lowerback -6.96759 -3.19784 0.173128
upperback -11.7115 -4.19795 1.30913
thorax -8.37125 -2.03509 1.30185
lowerneck 4.45036 -16.8075 -12.0358
upperneck -2.23234 -23.033 12.1117
head 1.40037 -11.6069 4.86832
rclavicle 6.02566e-015 -9.74045e-015
rhumerus -38.5533 13.8081 -49.467
rradius 123.01
rwrist 16.3162
rhand 54.124 -8.95238
rfingers 7.12502
rthumb 72.3846 -355.041
lclavicle 6.02566e-015 -9.74045e-015
lhumerus -24.3791 -18.4822 91.9505
lradius 120.589
lwrist -64.2891
lhand -113.167 -264.733
lfingers 7.12502
lthumb 74.6089 -217.812
rfemur -15.3893 29.4392 17.6917
rtibia 19.525
rfoot -36.7321 -40.5825
rtoes 42.1543
lfemur -5.32259 -38.1061 -9.0204
ltibia 10.3918
lfoot -19.2017 32.5618
ltoes 6.87096
